<svg id="Layer_1" data-name="Layer 1" xmlns="http://www.w3.org/2000/svg" viewBox="0 0 64 53.63"><defs><style>.cls-1{fill:#555;}</style></defs><path class="cls-1" d="M59.42,75.61c-.52.11-.93.21-1.35.29-1.3.21-2.59.45-3.89.62-1.53.21-3.06.34-4.6.41a46.35,46.35,0,0,1-4.86,0c-1.34-.08-2.67-.22-4-.43a35.93,35.93,0,0,1-5.12-1.21,30.77,30.77,0,0,1-3-1.11L32.3,74l.16-.25a12.63,12.63,0,0,0,2-4.37,22.12,22.12,0,0,0,.64-5.44c0-1.32-.07-2.65-.19-4-.08-.82-.18-1.63-.31-2.45-.3-1.89-.63-3.78-.94-5.68-.28-1.63-.56-3.27-.81-4.91a26.94,26.94,0,0,1-.3-5.15,23.51,23.51,0,0,1,1-6.11A19.56,19.56,0,0,1,36.48,30a15.93,15.93,0,0,1,7.36-5.67,15.11,15.11,0,0,1,6.07-.91,15.3,15.3,0,0,1,7,2,14.16,14.16,0,0,1,5.14,5,13.25,13.25,0,0,1,.8,12.12,11.79,11.79,0,0,1-11.51,6.79,8,8,0,0,1-4.84-2,8.62,8.62,0,0,1-2.78-5.17,7.53,7.53,0,0,1,.21-3.62,5.44,5.44,0,0,1,4.33-3.94,5.93,5.93,0,0,1,4.41.73,3.62,3.62,0,0,1,1,.88,3,3,0,0,1,.47,3.1,3.63,3.63,0,0,1-1.93,2.05,2.46,2.46,0,0,1-.7.21,1.81,1.81,0,0,1-2-1.57,1.1,1.1,0,0,1,.37-1,1.89,1.89,0,0,1,1.28-.53c.34,0,.67,0,1,0,.07,0,0-.13,0-.19a3.07,3.07,0,0,0-.28-.35,3.72,3.72,0,0,0-2.26-1.11,2.78,2.78,0,0,0-2.46,1,3.7,3.7,0,0,0-.93,2.15,5.71,5.71,0,0,0,3.67,5.93,6,6,0,0,0,3.34.25,7.29,7.29,0,0,0,3.53-1.73,7.83,7.83,0,0,0,1.85-2.59,8.4,8.4,0,0,0-1.78-9.41,9.74,9.74,0,0,0-5.25-2.88,9.11,9.11,0,0,0-2.15-.12,13.94,13.94,0,0,0-3.68.65,10.58,10.58,0,0,0-6.41,5.52A15.12,15.12,0,0,0,38,39.82a21.11,21.11,0,0,0-.14,4.7A29.45,29.45,0,0,0,39,50.4a37.58,37.58,0,0,0,3,7.26,45.25,45.25,0,0,0,17,17.66Z" transform="translate(-17.97 -23.36)"/><path class="cls-1" d="M46.85,53.22l.5.12a18.12,18.12,0,0,0,3.49.69,18.47,18.47,0,0,0,2.88,0A16.92,16.92,0,0,0,58.66,53a16.57,16.57,0,0,0,7.84-6.22,16.71,16.71,0,0,0,2.91-10.2,18.56,18.56,0,0,0-1.17-5.84c0-.14-.16-.27-.1-.46l.34.25a45.23,45.23,0,0,1,8.44,8.6,29.46,29.46,0,0,1,3.59,6.14,17.33,17.33,0,0,1,1.17,3.79A19.54,19.54,0,0,1,82,53.38,16.21,16.21,0,0,1,79.69,61a24.76,24.76,0,0,1-3.26,4.29,36.08,36.08,0,0,1-4.17,3.84c-.92.7-1.89,1.34-2.88,1.95a1,1,0,0,1-.74.13c-1.1-.21-2.21-.45-3.29-.76a30.27,30.27,0,0,1-7.23-3.06A27.41,27.41,0,0,1,50.56,61a20.62,20.62,0,0,1-2.47-3.73A12.7,12.7,0,0,1,47,54.36,4.08,4.08,0,0,1,46.85,53.22Z" transform="translate(-17.97 -23.36)"/><path class="cls-1" d="M28.43,31.39a3.09,3.09,0,0,1-.07.35,44.28,44.28,0,0,0-1.07,6A51.61,51.61,0,0,0,27,44c0,2,.09,3.9.14,5.85,0,1.37.1,2.74.12,4.12A36.13,36.13,0,0,1,27,58.6a18.51,18.51,0,0,1-2.94,8.28c-.17.26-.35.5-.53.75,0,.06-.1.1-.16.17-.09-.09-.17-.15-.24-.23a20.25,20.25,0,0,1-4.89-10.12A22.34,22.34,0,0,1,18,54.08a26.69,26.69,0,0,1,2.11-10.69,29.61,29.61,0,0,1,2.28-4.22A54.83,54.83,0,0,1,28,31.71l.29-.3Z" transform="translate(-17.97 -23.36)"/></svg>